# xmcd
#
# Track frame offsets:
#	150
#	15669
#	33011
#	47237
#	62639
#	80483
#	94750
#	112028
#	128740
#	148332
#
# Disc length: 2179 seconds
#
# Revision: 0
# Processed by: cddbd v1.5.1PL0 Copyright (c) Steve Scherf et al.
# Submitted via: dBpowerAMP V4.0
#
DISCID=8408810a
DTITLE=Eva Hillered - Life Line
DYEAR=2005
DGENRE=Country
TTITLE0=Just A Little Bit
TTITLE1=Hey Now
TTITLE2=Perfect
TTITLE3=Twin
TTITLE4=Life Line
TTITLE5=Best Of Us
TTITLE6=How Hard Can It Be
TTITLE7=The Day
TTITLE8=Falling
TTITLE9=Funny Prune
EXTD=
EXTT0=
EXTT1=
EXTT2=
EXTT3=
EXTT4=
EXTT5=
EXTT6=
EXTT7=
EXTT8=
EXTT9=
PLAYORDER=
